<?xml version="1.0" standalone="no"?>
<!DOCTYPE svg PUBLIC "-//W3C//DTD SVG 20010904//EN"
 "http://www.w3.org/TR/2001/REC-SVG-20010904/DTD/svg10.dtd">
<svg version="1.0" xmlns="http://www.w3.org/2000/svg"
 width="224.000000pt" height="112.000000pt" viewBox="0 0 224.000000 112.000000"
 preserveAspectRatio="xMidYMid meet">

<g transform="translate(0.000000,112.000000) scale(0.100000,-0.100000)"
fill="#000000" stroke="none">
<path d="M154 1103 c2 -10 10 -44 16 -76 10 -52 10 -62 -10 -102 l-22 -45 25
-84 24 -85 -93 -317 c-51 -174 -92 -320 -89 -323 2 -4 21 -8 42 -9 20 -2 78
-15 128 -30 122 -36 218 -36 340 0 50 15 108 28 128 30 21 1 40 5 42 9 3 3
-38 149 -89 323 l-93 317 24 85 25 84 -22 45 c-21 43 -21 47 -7 117 9 40 13
75 11 78 -9 8 -22 -23 -29 -67 -6 -43 -8 -45 -73 -75 -37 -16 -76 -30 -87 -30
-11 0 -50 13 -86 30 -62 28 -67 33 -73 68 -10 58 -16 74 -27 74 -6 0 -8 -8 -5
-17z m132 -157 l60 -27 68 31 c68 30 86 31 86 5 0 -8 7 -29 15 -47 15 -31 14
-39 -8 -115 l-24 -82 88 -301 c49 -165 90 -306 92 -312 1 -7 -15 -15 -38 -19
-22 -3 -84 -18 -139 -33 -125 -33 -168 -33 -297 3 -57 16 -117 31 -134 33 -20
2 -29 8 -27 18 2 8 42 145 89 305 l85 290 124 -4 c68 -1 124 1 124 6 0 4 -44
8 -97 9 -147 0 -146 -1 -172 93 -19 72 -20 83 -7 113 8 18 17 41 20 52 4 10
12 16 19 13 6 -3 39 -17 73 -31z"/>
<path d="M810 788 c-24 -12 -61 -39 -83 -61 -54 -54 -49 -74 35 -114 80 -39
94 -59 74 -106 -16 -40 -77 -90 -103 -85 -14 3 -4 17 46 66 35 34 59 62 54 62
-13 0 -123 -116 -123 -129 0 -6 12 -11 26 -11 33 0 110 74 120 115 8 35 20 52
47 66 18 10 19 8 13 -43 l-7 -53 16 34 c8 18 13 36 10 40 -7 12 20 114 43 158
12 23 22 53 22 65 -1 23 -1 23 -16 3 -8 -11 -19 -36 -24 -57 -6 -21 -14 -55
-20 -76 -7 -26 -21 -47 -45 -63 l-34 -25 -81 39 c-44 21 -80 45 -80 52 0 55
183 167 203 125 3 -6 4 -5 3 2 -4 22 -49 20 -96 -4z"/>
<path d="M1590 788 c-24 -12 -61 -39 -83 -61 -54 -54 -49 -74 35 -114 80 -39
94 -59 74 -106 -16 -40 -77 -90 -103 -85 -14 3 -4 17 46 66 35 34 59 62 54 62
-13 0 -123 -116 -123 -129 0 -6 12 -11 26 -11 33 0 110 74 120 115 8 35 20 52
47 66 18 10 19 8 13 -43 l-7 -53 16 34 c8 18 13 36 10 40 -7 12 20 114 43 158
12 23 22 53 22 65 -1 23 -1 23 -16 3 -8 -11 -19 -36 -24 -57 -6 -21 -14 -55
-20 -76 -7 -26 -21 -47 -45 -63 l-34 -25 -81 39 c-44 21 -80 45 -80 52 0 55
183 167 203 125 3 -6 4 -5 3 2 -4 22 -49 20 -96 -4z"/>
<path d="M1206 661 c-10 -11 -16 -26 -13 -33 5 -15 -10 -48 -23 -48 -5 0 -12
9 -15 20 -3 11 -13 20 -21 20 -8 0 -14 5 -14 11 0 7 -10 -3 -22 -21 -30 -44
-48 -49 -48 -13 l-1 28 -29 -35 c-29 -34 -30 -35 -36 -12 -7 25 -34 26 -42 2
-5 -13 -3 -13 11 -1 15 11 17 11 17 -2 0 -24 19 -31 39 -13 13 12 20 13 29 4
10 -10 17 -10 32 -1 15 10 19 9 22 -5 3 -13 8 -9 22 16 l17 33 19 -23 18 -23
24 23 c35 32 49 29 41 -10 -6 -35 -6 -36 -4 -56 2 -19 34 1 51 32 9 18 16 23
21 14 6 -9 13 -9 33 0 21 9 24 9 19 -3 -3 -8 -1 -15 4 -15 5 0 14 15 21 33
l13 32 16 -22 c8 -13 21 -23 27 -23 13 0 40 39 33 47 -3 3 -10 -5 -17 -16 -13
-25 -30 -28 -30 -6 0 9 -8 19 -17 22 -10 4 -21 11 -25 17 -5 7 -8 5 -8 -5 0
-15 -39 -59 -53 -59 -4 0 -7 12 -7 28 0 25 -2 24 -30 -20 -17 -27 -33 -48 -36
-48 -7 0 1 55 12 84 6 16 4 18 -14 14 -12 -4 -22 -2 -22 4 0 5 -4 6 -10 3 -6
-3 -7 1 -3 10 5 13 7 14 14 3 6 -9 9 -7 9 10 0 27 -2 27 -24 3z"/>
<path d="M1911 658 c-1 -16 -11 -38 -23 -50 l-23 -23 -3 23 c-5 32 -26 27 -61
-15 -30 -37 -31 -37 -37 -15 -7 25 -34 26 -42 2 -5 -13 -3 -13 11 -1 15 11 17
11 17 -2 0 -25 20 -30 41 -11 14 12 23 14 30 7 8 -8 19 -6 40 4 17 8 32 13 34
12 2 -2 -5 -49 -15 -104 -10 -55 -16 -102 -14 -104 5 -6 11 14 28 100 12 60
21 83 46 107 32 33 35 39 21 61 -9 14 -31 7 -31 -10 0 -6 5 -7 10 -4 6 3 10 2
10 -4 0 -18 -12 -41 -22 -41 -6 0 -8 6 -5 13 3 8 2 29 -3 48 -7 31 -8 32 -9 7z
m-67 -62 c-6 -15 -24 -23 -24 -11 0 8 24 34 28 30 1 -1 0 -10 -4 -19z"/>
</g>
</svg>
